<?xml version="1.0" encoding="UTF-8"?>
<svg id="Layer_1" data-name="Layer 1" xmlns="http://www.w3.org/2000/svg" viewBox="0 0 720 720">
  <defs>
    <style>
      .cls-1 {
        stroke: #231f20;
        stroke-linecap: round;
        stroke-width: 7.03px;
      }

      .cls-1, .cls-2 {
        fill: #232323;
        stroke-miterlimit: 10;
      }

      .cls-2 {
        stroke: #232323;
        stroke-width: .35px;
      }
    </style>
  </defs>
  <g>
    <path class="cls-2" d="M43.68,429.05c-2.2-1-3.95-2.37-5.23-4.11-1.28-1.73-1.97-3.67-2.05-5.81h7.57c.13,1.5.84,2.75,2.15,3.75,1.3,1.01,2.94,1.51,4.91,1.51s3.65-.39,4.78-1.19c1.13-.79,1.7-1.81,1.7-3.05,0-1.33-.63-2.31-1.89-2.95-1.26-.64-3.26-1.35-6-2.12-2.65-.73-4.81-1.43-6.48-2.12-1.67-.68-3.11-1.73-4.33-3.14-1.22-1.41-1.83-3.27-1.83-5.58,0-1.88.56-3.6,1.67-5.16,1.11-1.56,2.71-2.79,4.78-3.69,2.07-.9,4.46-1.35,7.15-1.35,4.02,0,7.26,1.02,9.72,3.05,2.46,2.03,3.77,4.8,3.95,8.31h-7.31c-.13-1.58-.77-2.84-1.92-3.79-1.15-.94-2.72-1.41-4.68-1.41s-3.4.36-4.43,1.09c-1.03.73-1.54,1.69-1.54,2.89,0,.94.34,1.73,1.03,2.37.68.64,1.52,1.15,2.5,1.51.98.36,2.44.82,4.36,1.38,2.57.69,4.67,1.38,6.32,2.09,1.65.71,3.07,1.74,4.27,3.11,1.2,1.37,1.82,3.19,1.86,5.45,0,2.01-.56,3.81-1.67,5.39-1.11,1.58-2.68,2.82-4.72,3.72-2.03.9-4.42,1.35-7.15,1.35s-5.27-.5-7.48-1.51Z"/>
    <path class="cls-2" d="M73,402.68c1.48-2.76,3.52-4.89,6.13-6.38,2.61-1.5,5.6-2.25,8.98-2.25,4.28,0,7.82,1.02,10.62,3.05,2.8,2.03,4.69,4.93,5.68,8.69h-7.89c-.64-1.75-1.67-3.12-3.08-4.11-1.41-.98-3.19-1.48-5.33-1.48-2.99,0-5.38,1.06-7.15,3.18-1.78,2.12-2.66,5.08-2.66,8.89s.89,6.78,2.66,8.92c1.77,2.14,4.16,3.21,7.15,3.21,4.23,0,7.04-1.86,8.41-5.58h7.89c-1.03,3.59-2.95,6.45-5.77,8.57-2.82,2.12-6.33,3.18-10.52,3.18-3.38,0-6.37-.76-8.98-2.28-2.61-1.52-4.65-3.66-6.13-6.42s-2.21-5.96-2.21-9.59.74-6.83,2.21-9.59Z"/>
    <path class="cls-2" d="M112.14,402.71c1.48-2.74,3.49-4.87,6.03-6.38,2.54-1.52,5.36-2.28,8.44-2.28,2.78,0,5.21.55,7.28,1.64,2.07,1.09,3.73,2.45,4.97,4.07v-5.13h7.38v35.35h-7.38v-5.26c-1.24,1.67-2.93,3.06-5.07,4.17-2.14,1.11-4.58,1.67-7.31,1.67-3.04,0-5.82-.78-8.34-2.34-2.52-1.56-4.52-3.74-6-6.54-1.48-2.8-2.21-5.98-2.21-9.53s.74-6.69,2.21-9.43ZM137.36,405.92c-1.01-1.8-2.32-3.17-3.95-4.11-1.63-.94-3.38-1.41-5.26-1.41s-3.64.46-5.26,1.38c-1.63.92-2.94,2.27-3.95,4.04-1.01,1.77-1.51,3.88-1.51,6.32s.5,4.58,1.51,6.42c1,1.84,2.33,3.24,3.98,4.2,1.65.96,3.39,1.44,5.23,1.44s3.64-.47,5.26-1.41c1.63-.94,2.94-2.32,3.95-4.14,1-1.82,1.51-3.95,1.51-6.38s-.5-4.56-1.51-6.35Z"/>
    <path class="cls-2" d="M165.04,400.6v19.57c0,1.33.31,2.28.93,2.86.62.58,1.68.87,3.18.87h4.49v6.1h-5.77c-3.29,0-5.82-.77-7.57-2.31-1.75-1.54-2.63-4.04-2.63-7.51v-19.57h-4.17v-5.97h4.17v-8.79h7.38v8.79h8.6v5.97h-8.6Z"/>
    <path class="cls-2" d="M189.55,400.6v19.57c0,1.33.31,2.28.93,2.86.62.58,1.68.87,3.18.87h4.49v6.1h-5.77c-3.29,0-5.82-.77-7.57-2.31-1.75-1.54-2.63-4.04-2.63-7.51v-19.57h-4.17v-5.97h4.17v-8.79h7.38v8.79h8.6v5.97h-8.6Z"/>
    <path class="cls-2" d="M237.68,415.03h-27.01c.21,2.82,1.26,5.09,3.14,6.8,1.88,1.71,4.19,2.57,6.93,2.57,3.93,0,6.72-1.65,8.34-4.94h7.89c-1.07,3.25-3.01,5.91-5.81,7.99-2.8,2.08-6.28,3.11-10.43,3.11-3.38,0-6.41-.76-9.08-2.28-2.67-1.52-4.77-3.66-6.29-6.42-1.52-2.76-2.28-5.96-2.28-9.59s.74-6.83,2.21-9.59,3.55-4.89,6.22-6.38c2.67-1.5,5.74-2.25,9.21-2.25s6.31.73,8.92,2.18c2.61,1.45,4.64,3.5,6.1,6.13,1.45,2.63,2.18,5.66,2.18,9.08,0,1.33-.09,2.52-.26,3.59ZM230.3,409.13c-.04-2.7-1.01-4.85-2.89-6.48-1.88-1.63-4.21-2.44-6.99-2.44-2.52,0-4.68.8-6.48,2.41s-2.87,3.78-3.21,6.51h19.57Z"/>
    <path class="cls-2" d="M257.34,395.56c1.77-1,3.88-1.51,6.32-1.51v7.57h-1.86c-2.87,0-5.04.73-6.51,2.18-1.48,1.46-2.21,3.98-2.21,7.57v18.61h-7.31v-35.35h7.31v5.13c1.07-1.8,2.49-3.2,4.27-4.2Z"/>
    <path class="cls-2" d="M270.82,402.71c1.48-2.74,3.49-4.87,6.03-6.38,2.54-1.52,5.38-2.28,8.5-2.28,2.31,0,4.59.5,6.83,1.51,2.25,1.01,4.03,2.34,5.36,4.01v-17.07h7.38v47.48h-7.38v-5.33c-1.2,1.71-2.86,3.12-4.97,4.23-2.12,1.11-4.55,1.67-7.28,1.67-3.08,0-5.89-.78-8.44-2.34-2.55-1.56-4.56-3.74-6.03-6.54-1.48-2.8-2.21-5.98-2.21-9.53s.74-6.69,2.21-9.43ZM296.03,405.92c-1.01-1.8-2.32-3.17-3.95-4.11-1.63-.94-3.38-1.41-5.26-1.41s-3.64.46-5.26,1.38c-1.63.92-2.94,2.27-3.95,4.04-1.01,1.77-1.51,3.88-1.51,6.32s.5,4.58,1.51,6.42c1,1.84,2.33,3.24,3.98,4.2,1.65.96,3.39,1.44,5.23,1.44s3.64-.47,5.26-1.41c1.63-.94,2.94-2.32,3.95-4.14,1-1.82,1.51-3.95,1.51-6.38s-.5-4.56-1.51-6.35Z"/>
    <path class="cls-2" d="M314.96,402.71c1.48-2.74,3.49-4.87,6.03-6.38,2.54-1.52,5.36-2.28,8.44-2.28,2.78,0,5.21.55,7.28,1.64,2.07,1.09,3.73,2.45,4.97,4.07v-5.13h7.38v35.35h-7.38v-5.26c-1.24,1.67-2.93,3.06-5.07,4.17-2.14,1.11-4.58,1.67-7.31,1.67-3.04,0-5.82-.78-8.34-2.34-2.52-1.56-4.52-3.74-6-6.54-1.48-2.8-2.21-5.98-2.21-9.53s.74-6.69,2.21-9.43ZM340.18,405.92c-1.01-1.8-2.32-3.17-3.95-4.11-1.63-.94-3.38-1.41-5.26-1.41s-3.64.46-5.26,1.38c-1.63.92-2.94,2.27-3.95,4.04-1.01,1.77-1.51,3.88-1.51,6.32s.5,4.58,1.51,6.42c1,1.84,2.33,3.24,3.98,4.2,1.65.96,3.39,1.44,5.23,1.44s3.64-.47,5.26-1.41c1.62-.94,2.94-2.32,3.95-4.14,1-1.82,1.51-3.95,1.51-6.38s-.5-4.56-1.51-6.35Z"/>
    <path class="cls-2" d="M391.15,394.63l-21.69,51.97h-7.57l7.19-17.2-13.92-34.78h8.15l9.95,26.95,10.33-26.95h7.57Z"/>
    <path class="cls-2" d="M419.99,429.05c-2.2-1-3.95-2.37-5.23-4.11-1.28-1.73-1.97-3.67-2.05-5.81h7.57c.13,1.5.84,2.75,2.15,3.75,1.3,1.01,2.94,1.51,4.91,1.51s3.65-.39,4.78-1.19c1.13-.79,1.7-1.81,1.7-3.05,0-1.33-.63-2.31-1.89-2.95-1.26-.64-3.26-1.35-6-2.12-2.65-.73-4.81-1.43-6.48-2.12-1.67-.68-3.11-1.73-4.33-3.14-1.22-1.41-1.83-3.27-1.83-5.58,0-1.88.56-3.6,1.67-5.16,1.11-1.56,2.71-2.79,4.78-3.69,2.07-.9,4.46-1.35,7.15-1.35,4.02,0,7.26,1.02,9.72,3.05,2.46,2.03,3.77,4.8,3.95,8.31h-7.31c-.13-1.58-.77-2.84-1.93-3.79-1.15-.94-2.72-1.41-4.68-1.41s-3.4.36-4.43,1.09c-1.03.73-1.54,1.69-1.54,2.89,0,.94.34,1.73,1.03,2.37.68.64,1.52,1.15,2.5,1.51.98.36,2.44.82,4.36,1.38,2.57.69,4.67,1.38,6.32,2.09,1.65.71,3.07,1.74,4.27,3.11,1.2,1.37,1.82,3.19,1.86,5.45,0,2.01-.56,3.81-1.67,5.39-1.11,1.58-2.69,2.82-4.72,3.72-2.03.9-4.42,1.35-7.15,1.35s-5.27-.5-7.48-1.51Z"/>
    <path class="cls-2" d="M481.37,394.63l-21.69,51.97h-7.57l7.19-17.2-13.92-34.78h8.15l9.95,26.95,10.33-26.95h7.57Z"/>
    <path class="cls-2" d="M492.88,429.05c-2.2-1-3.95-2.37-5.23-4.11-1.28-1.73-1.97-3.67-2.05-5.81h7.57c.13,1.5.84,2.75,2.15,3.75,1.3,1.01,2.94,1.51,4.91,1.51s3.65-.39,4.78-1.19c1.13-.79,1.7-1.81,1.7-3.05,0-1.33-.63-2.31-1.89-2.95-1.26-.64-3.26-1.35-6-2.12-2.65-.73-4.81-1.43-6.48-2.12-1.67-.68-3.11-1.73-4.33-3.14-1.22-1.41-1.83-3.27-1.83-5.58,0-1.88.56-3.6,1.67-5.16,1.11-1.56,2.71-2.79,4.78-3.69,2.07-.9,4.46-1.35,7.15-1.35,4.02,0,7.26,1.02,9.72,3.05,2.46,2.03,3.77,4.8,3.95,8.31h-7.31c-.13-1.58-.77-2.84-1.93-3.79-1.15-.94-2.72-1.41-4.68-1.41s-3.4.36-4.43,1.09c-1.03.73-1.54,1.69-1.54,2.89,0,.94.34,1.73,1.03,2.37.68.64,1.52,1.15,2.5,1.51.98.36,2.44.82,4.36,1.38,2.57.69,4.67,1.38,6.32,2.09,1.65.71,3.07,1.74,4.27,3.11,1.2,1.37,1.82,3.19,1.86,5.45,0,2.01-.56,3.81-1.67,5.39-1.11,1.58-2.69,2.82-4.72,3.72-2.03.9-4.42,1.35-7.15,1.35s-5.27-.5-7.48-1.51Z"/>
    <path class="cls-2" d="M530.96,400.6v19.57c0,1.33.31,2.28.93,2.86.62.58,1.68.87,3.18.87h4.49v6.1h-5.78c-3.29,0-5.82-.77-7.57-2.31-1.75-1.54-2.63-4.04-2.63-7.51v-19.57h-4.17v-5.97h4.17v-8.79h7.38v8.79h8.6v5.97h-8.6Z"/>
    <path class="cls-2" d="M579.09,415.03h-27.01c.21,2.82,1.26,5.09,3.14,6.8,1.88,1.71,4.19,2.57,6.93,2.57,3.93,0,6.72-1.65,8.34-4.94h7.89c-1.07,3.25-3.01,5.91-5.81,7.99-2.8,2.08-6.28,3.11-10.43,3.11-3.38,0-6.41-.76-9.08-2.28-2.67-1.52-4.77-3.66-6.29-6.42-1.52-2.76-2.28-5.96-2.28-9.59s.74-6.83,2.21-9.59c1.48-2.76,3.55-4.89,6.22-6.38,2.67-1.5,5.74-2.25,9.21-2.25s6.31.73,8.92,2.18c2.61,1.45,4.64,3.5,6.1,6.13,1.45,2.63,2.18,5.66,2.18,9.08,0,1.33-.09,2.52-.26,3.59ZM571.71,409.13c-.04-2.7-1.01-4.85-2.89-6.48-1.88-1.63-4.21-2.44-6.99-2.44-2.52,0-4.68.8-6.48,2.41-1.8,1.6-2.87,3.78-3.21,6.51h19.57Z"/>
    <path class="cls-2" d="M637.44,395.78c2.2,1.15,3.94,2.87,5.2,5.13,1.26,2.27,1.89,5,1.89,8.21v20.85h-7.25v-19.76c0-3.17-.79-5.59-2.37-7.28-1.58-1.69-3.74-2.53-6.48-2.53s-4.91.84-6.51,2.53-2.41,4.12-2.41,7.28v19.76h-7.25v-19.76c0-3.17-.79-5.59-2.37-7.28-1.58-1.69-3.74-2.53-6.48-2.53s-4.91.84-6.51,2.53c-1.6,1.69-2.41,4.12-2.41,7.28v19.76h-7.31v-35.35h7.31v4.04c1.2-1.45,2.72-2.59,4.56-3.4,1.84-.81,3.81-1.22,5.9-1.22,2.82,0,5.35.6,7.57,1.8,2.22,1.2,3.93,2.93,5.13,5.2,1.07-2.14,2.74-3.84,5-5.1,2.27-1.26,4.71-1.89,7.31-1.89,2.78,0,5.27.58,7.47,1.73Z"/>
    <path class="cls-2" d="M659.84,429.05c-2.2-1-3.95-2.37-5.23-4.11-1.28-1.73-1.97-3.67-2.05-5.81h7.57c.13,1.5.84,2.75,2.15,3.75,1.3,1.01,2.94,1.51,4.91,1.51s3.65-.39,4.78-1.19c1.13-.79,1.7-1.81,1.7-3.05,0-1.33-.63-2.31-1.89-2.95-1.26-.64-3.26-1.35-6-2.12-2.65-.73-4.81-1.43-6.48-2.12-1.67-.68-3.11-1.73-4.33-3.14-1.22-1.41-1.83-3.27-1.83-5.58,0-1.88.56-3.6,1.67-5.16,1.11-1.56,2.71-2.79,4.78-3.69,2.07-.9,4.46-1.35,7.15-1.35,4.02,0,7.26,1.02,9.72,3.05,2.46,2.03,3.77,4.8,3.95,8.31h-7.31c-.13-1.58-.77-2.84-1.93-3.79-1.15-.94-2.72-1.41-4.68-1.41s-3.4.36-4.43,1.09c-1.03.73-1.54,1.69-1.54,2.89,0,.94.34,1.73,1.03,2.37.68.64,1.52,1.15,2.5,1.51.98.36,2.44.82,4.36,1.38,2.57.69,4.67,1.38,6.32,2.09,1.65.71,3.07,1.74,4.27,3.11,1.2,1.37,1.82,3.19,1.86,5.45,0,2.01-.56,3.81-1.67,5.39-1.11,1.58-2.69,2.82-4.72,3.72-2.03.9-4.42,1.35-7.15,1.35s-5.27-.5-7.48-1.51Z"/>
  </g>
  <line class="cls-1" x1="231.8" y1="486.88" x2="485.63" y2="486.88"/>
  <line class="cls-1" x1="233.02" y1="354.53" x2="358.72" y2="233.12"/>
  <line class="cls-1" x1="484.41" y1="354.53" x2="358.72" y2="233.12"/>
  <line class="cls-1" x1="424.81" y1="294.92" x2="424.81" y2="270.31"/>
  <path class="cls-2" d="M337.81,301.74c-.81.72-.88,1.96-.15,2.77.72.81,1.96.88,2.77.15l-2.61-2.92ZM377.01,304.66c.81.72,2.05.65,2.77-.15.72-.81.65-2.05-.15-2.77l-2.61,2.92ZM358.72,323.15c-1.08,0-1.96.88-1.96,1.96s.88,1.96,1.96,1.96v-3.92ZM358.72,327.07c1.08,0,1.96-.88,1.96-1.96s-.88-1.96-1.96-1.96v3.92ZM363.99,319.31c.8.73,2.04.67,2.77-.13.73-.8.67-2.04-.13-2.77l-2.64,2.9ZM370.58,312.06c.8.73,2.04.67,2.77-.13.73-.8.67-2.04-.13-2.77l-2.64,2.9ZM350.81,316.41c-.8.73-.86,1.97-.13,2.77.73.8,1.97.86,2.77.13l-2.64-2.9ZM344.21,309.16c-.8.73-.86,1.97-.13,2.77.73.8,1.97.86,2.77.13l-2.64-2.9ZM340.43,304.66c4.86-4.35,11.26-6.99,18.29-6.99v-3.92c-8.03,0-15.36,3.02-20.91,7.99l2.61,2.92ZM358.72,297.67c7.03,0,13.44,2.64,18.29,6.99l2.61-2.92c-5.55-4.96-12.88-7.99-20.91-7.99v3.92ZM359.05,327.07h-.33v-3.97h.33v3.97ZM358.72,317.27c2.03,0,3.88.77,5.27,2.04l2.64-2.9c-2.09-1.9-4.87-3.06-7.91-3.06v3.92ZM358.72,307.47c4.57,0,8.73,1.74,11.87,4.59l2.64-2.9c-3.83-3.48-8.92-5.61-14.5-5.61v3.92ZM353.45,319.31c1.39-1.27,3.24-2.04,5.27-2.04v-3.92c-3.05,0-5.82,1.16-7.91,3.06l2.64,2.9ZM346.85,312.06c3.13-2.85,7.3-4.59,11.87-4.59v-3.92c-5.58,0-10.68,2.13-14.5,5.61l2.64,2.9Z"/>
</svg>